<svg width="20" height="20" viewBox="0 0 20 20" fill="none" xmlns="http://www.w3.org/2000/svg">
<path d="M10 3.33317C13.675 3.33317 16.6667 6.32484 16.6667 9.99984C16.6667 13.6748 13.675 16.6665 10 16.6665C6.325 16.6665 3.33333 13.6748 3.33333 9.99984C3.33333 6.32484 6.325 3.33317 10 3.33317ZM10 1.6665C5.4 1.6665 1.66666 5.39984 1.66666 9.99984C1.66666 14.5998 5.4 18.3332 10 18.3332C14.6 18.3332 18.3333 14.5998 18.3333 9.99984C18.3333 5.39984 14.6 1.6665 10 1.6665ZM10.8333 9.99984V6.6665H9.16666V9.99984H6.66666L10 13.3332L13.3333 9.99984H10.8333Z" fill="white"/>
</svg>
