<svg width="40" height="20" viewBox="0 0 40 20" fill="none" xmlns="http://www.w3.org/2000/svg">
<rect width="40" height="20" rx="10" fill="white"/>
<path d="M12.6355 11.458V14.1113H10.9007V6.40918H13.6184C15.5592 6.40918 16.5296 7.22738 16.5296 8.86377C16.5296 9.63721 16.2503 10.2638 15.6917 10.7437C15.1367 11.2199 14.3937 11.458 13.4627 11.458H12.6355ZM12.6355 7.74121V10.1421H13.3177C14.2415 10.1421 14.7034 9.73747 14.7034 8.92822C14.7034 8.13688 14.2415 7.74121 13.3177 7.74121H12.6355ZM24.1189 14.1113H22.1262L20.9285 12.1294C20.839 11.979 20.753 11.8447 20.6707 11.7266C20.5883 11.6084 20.5042 11.5081 20.4182 11.4258C20.3359 11.3398 20.2482 11.2754 20.1551 11.2324C20.0655 11.1859 19.9671 11.1626 19.8596 11.1626H19.3924V14.1113H17.6575V6.40918H20.4075C22.2766 6.40918 23.2112 7.10742 23.2112 8.50391C23.2112 8.77246 23.17 9.02132 23.0877 9.25049C23.0053 9.47607 22.8889 9.68018 22.7385 9.86279C22.5882 10.0454 22.4055 10.203 22.1907 10.3354C21.9794 10.4679 21.7431 10.5718 21.4817 10.647V10.6685C21.5963 10.7043 21.7073 10.7633 21.8147 10.8457C21.9221 10.9245 22.026 11.0176 22.1262 11.125C22.2265 11.2324 22.3214 11.3488 22.4109 11.4741C22.504 11.5959 22.5882 11.7158 22.6634 11.834L24.1189 14.1113ZM19.3924 7.70898V9.85205H20.1443C20.5167 9.85205 20.8157 9.74463 21.0413 9.52979C21.2705 9.31136 21.385 9.04102 21.385 8.71875C21.385 8.04557 20.9822 7.70898 20.1765 7.70898H19.3924ZM27.9915 14.2456C26.8886 14.2456 25.9899 13.8875 25.2952 13.1714C24.6005 12.4517 24.2532 11.5153 24.2532 10.3623C24.2532 9.14486 24.6059 8.16016 25.3113 7.4082C26.0167 6.65625 26.9513 6.28027 28.115 6.28027C29.2143 6.28027 30.1023 6.64014 30.7791 7.35986C31.4594 8.07959 31.7996 9.02848 31.7996 10.2065C31.7996 11.4168 31.4469 12.3926 30.7415 13.1338C30.0397 13.875 29.123 14.2456 27.9915 14.2456ZM28.0667 7.77344C27.458 7.77344 26.9746 8.0026 26.6165 8.46094C26.2584 8.91569 26.0794 9.51904 26.0794 10.271C26.0794 11.0337 26.2584 11.637 26.6165 12.0811C26.9746 12.5251 27.4436 12.7471 28.0237 12.7471C28.6217 12.7471 29.0961 12.5322 29.447 12.1025C29.798 11.6693 29.9734 11.0695 29.9734 10.3032C29.9734 9.50472 29.8033 8.88346 29.4632 8.43945C29.123 7.99544 28.6575 7.77344 28.0667 7.77344Z" fill="#0EA489"/>
</svg>
