<svg width="20" height="18" viewBox="0 0 20 18" fill="none" xmlns="http://www.w3.org/2000/svg">
<path fill-rule="evenodd" clip-rule="evenodd" d="M7.90835 1.71849C8.82588 0.0873266 11.1744 0.0873257 12.0919 1.71849L18.7883 13.6231C19.6882 15.223 18.5321 17.1998 16.6965 17.1998H3.30376C1.46818 17.1998 0.312066 15.223 1.21198 13.6231L7.90835 1.71849ZM11.2 13.5999C11.2 14.2626 10.6628 14.7999 10 14.7999C9.33728 14.7999 8.80002 14.2626 8.80002 13.5999C8.80002 12.9372 9.33728 12.3999 10 12.3999C10.6628 12.3999 11.2 12.9372 11.2 13.5999ZM10 3.9999C9.33728 3.9999 8.80002 4.53716 8.80002 5.1999V8.7999C8.80002 9.46264 9.33728 9.9999 10 9.9999C10.6628 9.9999 11.2 9.46264 11.2 8.7999V5.1999C11.2 4.53716 10.6628 3.9999 10 3.9999Z" fill="#FBBF24"/>
</svg>
